<svg xmlns="http://www.w3.org/2000/svg" width="1254" height="1254" viewBox="0 0 1254 1254" role="img" aria-label="S Sentinel logo">
  <path d="M 782.00 720.00 L 777.00 725.00 L 769.00 735.00 L 750.00 753.00 L 733.00 766.00 L 714.00 778.00 L 698.00 786.00 L 686.00 791.00 L 671.00 796.00 L 644.00 802.00 L 634.00 803.00 L 518.00 803.00 L 501.00 806.00 L 494.00 808.00 L 481.00 813.00 L 471.00 818.00 L 456.00 828.00 L 441.00 842.00 L 430.00 856.00 L 424.00 866.00 L 416.00 884.00 L 412.00 899.00 L 410.00 916.00 L 410.00 921.00 L 411.00 922.00 L 411.00 926.00 L 413.00 927.00 L 623.00 927.00 L 638.00 925.00 L 659.00 920.00 L 674.00 915.00 L 694.00 906.00 L 713.00 895.00 L 730.00 882.00 L 752.00 860.00 L 766.00 841.00 L 778.00 818.00 L 785.00 798.00 L 788.00 783.00 L 789.00 774.00 L 789.00 750.00 L 788.00 742.00 L 784.00 725.00 Z M 457.00 547.00 L 457.00 550.00 L 456.00 551.00 L 454.00 562.00 L 453.00 576.00 L 454.00 593.00 L 458.00 613.00 L 463.00 627.00 L 473.00 646.00 L 482.00 658.00 L 496.00 672.00 L 505.00 679.00 L 519.00 688.00 L 539.00 698.00 L 559.00 706.00 L 589.00 716.00 L 630.00 728.00 L 650.00 733.00 L 670.00 736.00 L 699.00 736.00 L 719.00 733.00 L 733.00 729.00 L 748.00 723.00 L 761.00 716.00 L 767.00 711.00 L 767.00 707.00 L 754.00 689.00 L 739.00 673.00 L 724.00 661.00 L 703.00 648.00 L 688.00 641.00 L 668.00 634.00 L 652.00 630.00 L 612.00 622.00 L 596.00 620.00 L 562.00 613.00 L 539.00 607.00 L 519.00 600.00 L 497.00 589.00 L 483.00 579.00 L 470.00 566.00 L 466.00 561.00 Z M 520.00 485.00 L 508.00 492.00 L 499.00 498.00 L 496.00 501.00 L 495.00 501.00 L 493.00 503.00 L 492.00 505.00 L 492.00 507.00 L 497.00 517.00 L 509.00 533.00 L 521.00 545.00 L 530.00 552.00 L 539.00 558.00 L 551.00 564.00 L 568.00 570.00 L 582.00 573.00 L 591.00 574.00 L 601.00 574.00 L 617.00 576.00 L 624.00 578.00 L 631.00 578.00 L 662.00 584.00 L 681.00 589.00 L 709.00 599.00 L 730.00 610.00 L 739.00 616.00 L 750.00 625.00 L 763.00 638.00 L 769.00 645.00 L 782.00 664.00 L 790.00 680.00 L 794.00 690.00 L 801.00 713.00 L 804.00 730.00 L 805.00 740.00 L 805.00 767.00 L 804.00 777.00 L 801.00 793.00 L 796.00 811.00 L 789.00 829.00 L 781.00 845.00 L 772.00 859.00 L 763.00 871.00 L 756.00 879.00 L 741.00 894.00 L 732.00 901.00 L 734.00 901.00 L 737.00 899.00 L 739.00 899.00 L 760.00 888.00 L 782.00 873.00 L 795.00 862.00 L 811.00 846.00 L 824.00 830.00 L 834.00 815.00 L 846.00 792.00 L 854.00 772.00 L 859.00 755.00 L 863.00 736.00 L 866.00 709.00 L 866.00 679.00 L 865.00 667.00 L 862.00 648.00 L 858.00 632.00 L 853.00 617.00 L 848.00 605.00 L 840.00 590.00 L 831.00 576.00 L 814.00 555.00 L 796.00 538.00 L 779.00 525.00 L 760.00 513.00 L 737.00 501.00 L 708.00 489.00 L 687.00 482.00 L 660.00 475.00 L 619.00 468.00 L 609.00 467.00 L 578.00 467.00 L 560.00 470.00 L 549.00 473.00 L 535.00 478.00 Z M 825.00 282.00 L 823.00 281.00 L 808.00 282.00 L 765.00 282.00 L 735.00 281.00 L 647.00 281.00 L 625.00 282.00 L 616.00 281.00 L 597.00 281.00 L 570.00 283.00 L 543.00 289.00 L 533.00 292.00 L 513.00 300.00 L 497.00 308.00 L 475.00 322.00 L 460.00 334.00 L 441.00 353.00 L 432.00 364.00 L 421.00 380.00 L 414.00 392.00 L 405.00 411.00 L 398.00 431.00 L 394.00 447.00 L 391.00 468.00 L 391.00 506.00 L 395.00 530.00 L 401.00 552.00 L 408.00 570.00 L 420.00 594.00 L 433.00 614.00 L 451.00 636.00 L 463.00 648.00 L 463.00 646.00 L 461.00 644.00 L 457.00 636.00 L 449.00 615.00 L 444.00 590.00 L 443.00 578.00 L 444.00 555.00 L 448.00 532.00 L 452.00 517.00 L 458.00 500.00 L 462.00 491.00 L 473.00 470.00 L 483.00 455.00 L 492.00 444.00 L 513.00 423.00 L 522.00 416.00 L 534.00 408.00 L 551.00 399.00 L 572.00 391.00 L 588.00 387.00 L 612.00 384.00 L 721.00 385.00 L 736.00 384.00 L 754.00 380.00 L 767.00 375.00 L 775.00 371.00 L 792.00 359.00 L 802.00 349.00 L 813.00 334.00 L 820.00 320.00 L 823.00 312.00 L 825.00 304.00 L 827.00 290.00 L 827.00 287.00 Z" fill="#01183F" fill-rule="evenodd"/>
</svg>
